<mxfile host="app.diagrams.net" modified="2021-01-31T11:56:05.813Z" agent="5.0 (Macintosh; Intel Mac OS X 11_0_1) AppleWebKit/537.36 (KHTML, like Gecko) Chrome/88.0.4324.96 Safari/537.36" etag="uoPwQixeUpdVWFqpEoRJ" version="14.2.6" type="github">
  <diagram id="Ryz3Xy-kjaBdkjbBAVjZ" name="Page-1">
    <mxGraphModel dx="880" dy="621" grid="1" gridSize="10" guides="1" tooltips="1" connect="1" arrows="1" fold="1" page="1" pageScale="1" pageWidth="827" pageHeight="1169" math="0" shadow="0">
      <root>
        <mxCell id="0" />
        <mxCell id="1" parent="0" />
        <mxCell id="Vq0QDVuxdIuJCVpMwQUM-1" value="domain" style="rounded=0;whiteSpace=wrap;html=1;" vertex="1" parent="1">
          <mxGeometry x="260" y="845" width="130" height="60" as="geometry" />
        </mxCell>
        <mxCell id="Vq0QDVuxdIuJCVpMwQUM-2" value="二方库" style="rounded=0;whiteSpace=wrap;html=1;" vertex="1" parent="1">
          <mxGeometry x="110" y="705" width="130" height="60" as="geometry" />
        </mxCell>
        <mxCell id="Vq0QDVuxdIuJCVpMwQUM-4" value="domain" style="rounded=0;whiteSpace=wrap;html=1;" vertex="1" parent="1">
          <mxGeometry x="550" y="320" width="120" height="60" as="geometry" />
        </mxCell>
        <mxCell id="Vq0QDVuxdIuJCVpMwQUM-13" style="edgeStyle=orthogonalEdgeStyle;rounded=0;orthogonalLoop=1;jettySize=auto;html=1;exitX=0.75;exitY=1;exitDx=0;exitDy=0;entryX=0.75;entryY=0;entryDx=0;entryDy=0;" edge="1" parent="1" source="Vq0QDVuxdIuJCVpMwQUM-7" target="Vq0QDVuxdIuJCVpMwQUM-11">
          <mxGeometry relative="1" as="geometry" />
        </mxCell>
        <mxCell id="Vq0QDVuxdIuJCVpMwQUM-40" style="edgeStyle=orthogonalEdgeStyle;rounded=0;orthogonalLoop=1;jettySize=auto;html=1;exitX=0;exitY=0.5;exitDx=0;exitDy=0;entryX=1;entryY=0.5;entryDx=0;entryDy=0;" edge="1" parent="1" source="Vq0QDVuxdIuJCVpMwQUM-7" target="Vq0QDVuxdIuJCVpMwQUM-39">
          <mxGeometry relative="1" as="geometry" />
        </mxCell>
        <mxCell id="Vq0QDVuxdIuJCVpMwQUM-7" value="app" style="rounded=0;whiteSpace=wrap;html=1;" vertex="1" parent="1">
          <mxGeometry x="580" y="200" width="180" height="60" as="geometry" />
        </mxCell>
        <mxCell id="Vq0QDVuxdIuJCVpMwQUM-9" style="edgeStyle=orthogonalEdgeStyle;rounded=0;orthogonalLoop=1;jettySize=auto;html=1;exitX=0.5;exitY=1;exitDx=0;exitDy=0;entryX=0.5;entryY=0;entryDx=0;entryDy=0;" edge="1" parent="1" source="Vq0QDVuxdIuJCVpMwQUM-8" target="Vq0QDVuxdIuJCVpMwQUM-7">
          <mxGeometry relative="1" as="geometry" />
        </mxCell>
        <mxCell id="Vq0QDVuxdIuJCVpMwQUM-8" value="adapter" style="rounded=0;whiteSpace=wrap;html=1;" vertex="1" parent="1">
          <mxGeometry x="610" y="90" width="120" height="60" as="geometry" />
        </mxCell>
        <mxCell id="Vq0QDVuxdIuJCVpMwQUM-12" style="edgeStyle=orthogonalEdgeStyle;rounded=0;orthogonalLoop=1;jettySize=auto;html=1;exitX=0.25;exitY=0;exitDx=0;exitDy=0;" edge="1" parent="1" source="Vq0QDVuxdIuJCVpMwQUM-11" target="Vq0QDVuxdIuJCVpMwQUM-4">
          <mxGeometry relative="1" as="geometry" />
        </mxCell>
        <mxCell id="Vq0QDVuxdIuJCVpMwQUM-11" value="基础设施" style="rounded=0;whiteSpace=wrap;html=1;" vertex="1" parent="1">
          <mxGeometry x="580" y="450" width="180" height="60" as="geometry" />
        </mxCell>
        <mxCell id="Vq0QDVuxdIuJCVpMwQUM-21" style="edgeStyle=orthogonalEdgeStyle;rounded=0;orthogonalLoop=1;jettySize=auto;html=1;exitX=0.75;exitY=1;exitDx=0;exitDy=0;entryX=0.75;entryY=0;entryDx=0;entryDy=0;" edge="1" parent="1" source="Vq0QDVuxdIuJCVpMwQUM-15" target="Vq0QDVuxdIuJCVpMwQUM-19">
          <mxGeometry relative="1" as="geometry">
            <mxPoint x="420" y="965" as="targetPoint" />
          </mxGeometry>
        </mxCell>
        <mxCell id="Vq0QDVuxdIuJCVpMwQUM-24" style="edgeStyle=orthogonalEdgeStyle;rounded=0;orthogonalLoop=1;jettySize=auto;html=1;exitX=0;exitY=0.5;exitDx=0;exitDy=0;entryX=1;entryY=0.5;entryDx=0;entryDy=0;" edge="1" parent="1" source="Vq0QDVuxdIuJCVpMwQUM-15" target="Vq0QDVuxdIuJCVpMwQUM-2">
          <mxGeometry relative="1" as="geometry" />
        </mxCell>
        <mxCell id="Vq0QDVuxdIuJCVpMwQUM-15" value="app" style="rounded=0;whiteSpace=wrap;html=1;" vertex="1" parent="1">
          <mxGeometry x="280" y="705" width="190" height="60" as="geometry" />
        </mxCell>
        <mxCell id="Vq0QDVuxdIuJCVpMwQUM-18" style="edgeStyle=orthogonalEdgeStyle;rounded=0;orthogonalLoop=1;jettySize=auto;html=1;exitX=0.5;exitY=1;exitDx=0;exitDy=0;entryX=0.5;entryY=0;entryDx=0;entryDy=0;" edge="1" parent="1" source="Vq0QDVuxdIuJCVpMwQUM-17" target="Vq0QDVuxdIuJCVpMwQUM-15">
          <mxGeometry relative="1" as="geometry" />
        </mxCell>
        <mxCell id="Vq0QDVuxdIuJCVpMwQUM-17" value="adapter" style="rounded=0;whiteSpace=wrap;html=1;" vertex="1" parent="1">
          <mxGeometry x="315" y="585" width="120" height="60" as="geometry" />
        </mxCell>
        <mxCell id="Vq0QDVuxdIuJCVpMwQUM-22" style="edgeStyle=orthogonalEdgeStyle;rounded=0;orthogonalLoop=1;jettySize=auto;html=1;exitX=0.25;exitY=0;exitDx=0;exitDy=0;" edge="1" parent="1" source="Vq0QDVuxdIuJCVpMwQUM-19" target="Vq0QDVuxdIuJCVpMwQUM-1">
          <mxGeometry relative="1" as="geometry" />
        </mxCell>
        <mxCell id="Vq0QDVuxdIuJCVpMwQUM-19" value="基础设施" style="rounded=0;whiteSpace=wrap;html=1;" vertex="1" parent="1">
          <mxGeometry x="260" y="980" width="230" height="60" as="geometry" />
        </mxCell>
        <mxCell id="Vq0QDVuxdIuJCVpMwQUM-25" value="&lt;h1&gt;二方库&lt;/h1&gt;&lt;p&gt;二方库存放：&lt;/p&gt;&lt;p&gt;1. app中服务的接口&lt;/p&gt;&lt;p&gt;2. 存放DTO&lt;/p&gt;" style="text;html=1;strokeColor=none;fillColor=none;spacing=5;spacingTop=-20;whiteSpace=wrap;overflow=hidden;rounded=0;" vertex="1" parent="1">
          <mxGeometry x="540" y="720" width="190" height="120" as="geometry" />
        </mxCell>
        <mxCell id="Vq0QDVuxdIuJCVpMwQUM-36" style="edgeStyle=orthogonalEdgeStyle;rounded=0;orthogonalLoop=1;jettySize=auto;html=1;exitX=0.5;exitY=0;exitDx=0;exitDy=0;entryX=0.5;entryY=1;entryDx=0;entryDy=0;" edge="1" parent="1" source="Vq0QDVuxdIuJCVpMwQUM-26" target="Vq0QDVuxdIuJCVpMwQUM-27">
          <mxGeometry relative="1" as="geometry" />
        </mxCell>
        <mxCell id="Vq0QDVuxdIuJCVpMwQUM-26" value="domain" style="rounded=0;whiteSpace=wrap;html=1;" vertex="1" parent="1">
          <mxGeometry x="160" y="330" width="130" height="60" as="geometry" />
        </mxCell>
        <mxCell id="Vq0QDVuxdIuJCVpMwQUM-27" value="二方库" style="rounded=0;whiteSpace=wrap;html=1;" vertex="1" parent="1">
          <mxGeometry x="10" y="190" width="130" height="60" as="geometry" />
        </mxCell>
        <mxCell id="Vq0QDVuxdIuJCVpMwQUM-28" style="edgeStyle=orthogonalEdgeStyle;rounded=0;orthogonalLoop=1;jettySize=auto;html=1;exitX=0.75;exitY=1;exitDx=0;exitDy=0;entryX=0.75;entryY=0;entryDx=0;entryDy=0;" edge="1" parent="1" source="Vq0QDVuxdIuJCVpMwQUM-31" target="Vq0QDVuxdIuJCVpMwQUM-35">
          <mxGeometry relative="1" as="geometry">
            <mxPoint x="320" y="450" as="targetPoint" />
          </mxGeometry>
        </mxCell>
        <mxCell id="Vq0QDVuxdIuJCVpMwQUM-30" style="edgeStyle=orthogonalEdgeStyle;rounded=0;orthogonalLoop=1;jettySize=auto;html=1;exitX=0;exitY=0.5;exitDx=0;exitDy=0;entryX=1;entryY=0.5;entryDx=0;entryDy=0;" edge="1" parent="1" source="Vq0QDVuxdIuJCVpMwQUM-31" target="Vq0QDVuxdIuJCVpMwQUM-27">
          <mxGeometry relative="1" as="geometry" />
        </mxCell>
        <mxCell id="Vq0QDVuxdIuJCVpMwQUM-31" value="app" style="rounded=0;whiteSpace=wrap;html=1;" vertex="1" parent="1">
          <mxGeometry x="180" y="190" width="190" height="60" as="geometry" />
        </mxCell>
        <mxCell id="Vq0QDVuxdIuJCVpMwQUM-32" style="edgeStyle=orthogonalEdgeStyle;rounded=0;orthogonalLoop=1;jettySize=auto;html=1;exitX=0.5;exitY=1;exitDx=0;exitDy=0;entryX=0.5;entryY=0;entryDx=0;entryDy=0;" edge="1" parent="1" source="Vq0QDVuxdIuJCVpMwQUM-33" target="Vq0QDVuxdIuJCVpMwQUM-31">
          <mxGeometry relative="1" as="geometry" />
        </mxCell>
        <mxCell id="Vq0QDVuxdIuJCVpMwQUM-33" value="adapter" style="rounded=0;whiteSpace=wrap;html=1;" vertex="1" parent="1">
          <mxGeometry x="215" y="70" width="120" height="60" as="geometry" />
        </mxCell>
        <mxCell id="Vq0QDVuxdIuJCVpMwQUM-34" style="edgeStyle=orthogonalEdgeStyle;rounded=0;orthogonalLoop=1;jettySize=auto;html=1;exitX=0.25;exitY=0;exitDx=0;exitDy=0;" edge="1" parent="1" source="Vq0QDVuxdIuJCVpMwQUM-35" target="Vq0QDVuxdIuJCVpMwQUM-26">
          <mxGeometry relative="1" as="geometry" />
        </mxCell>
        <mxCell id="Vq0QDVuxdIuJCVpMwQUM-35" value="基础设施" style="rounded=0;whiteSpace=wrap;html=1;" vertex="1" parent="1">
          <mxGeometry x="160" y="465" width="230" height="60" as="geometry" />
        </mxCell>
        <mxCell id="Vq0QDVuxdIuJCVpMwQUM-37" value="&lt;h1&gt;cola没有问题&lt;/h1&gt;&lt;div&gt;app不需要直接依赖domain，通过基础设施间接依赖了domain，把app接口和dto抽象出二方库，domain再进行依赖，只会更灵活。&lt;/div&gt;" style="text;html=1;strokeColor=none;fillColor=none;spacing=5;spacingTop=-20;whiteSpace=wrap;overflow=hidden;rounded=0;" vertex="1" parent="1">
          <mxGeometry x="370" y="60" width="190" height="120" as="geometry" />
        </mxCell>
        <mxCell id="Vq0QDVuxdIuJCVpMwQUM-39" value="二方库" style="rounded=0;whiteSpace=wrap;html=1;fillColor=#d5e8d4;strokeColor=#82b366;dashed=1;" vertex="1" parent="1">
          <mxGeometry x="410" y="200" width="130" height="60" as="geometry" />
        </mxCell>
      </root>
    </mxGraphModel>
  </diagram>
</mxfile>
